<svg xmlns="http://www.w3.org/2000/svg" viewBox="0 0 377 63.7"><g fill-rule="evenodd" clip-rule="evenodd"><path d="M36 2.1c0 .1.1.2.1.4l.3 1.5L23 8.6c-2.4.8-3.9 3.4-3.3 5.9l7.8 37.7-15 5.2c-.3.1-.6.2-.9.2h-.1c-1.3 0-2.4-.8-2.9-2.1 0-.1-.1-.2-.1-.4L0 14.1c-.3-1.5.5-3 2-3.5L32.1.2c.4-.1.7-.2 1-.2h.1c1.2 0 2.4.8 2.8 2.1zm.8 3.9l1.7 8.1 6.1 29.4c.3 1.5-.5 3-2 3.5l-13.2 4.5L21.6 14c-.3-1.5.5-3 2-3.5L36.8 6z" fill="#0047ff"/><path d="M57.6 2.1c0 .1.1.2.1.4l.3 1.7-13 4.5c-2.4.8-3.9 3.4-3.3 5.9l7.8 37.6-15.4 5.3c-.3.1-.6.2-.9.2h-.1c-1.3 0-2.4-.8-2.9-2.1 0-.1-.1-.2-.1-.4l-8.5-41c-.3-1.5.5-3 2-3.5L53.8.2c.3-.1.6-.2.9-.2h.1c1.2 0 2.4.8 2.8 2.1zm.9 4l1.7 8 6.1 29.4c.3 1.5-.5 3-2 3.5l-12.8 4.4-7.8-37.3c-.3-1.5.5-3 2-3.5l12.8-4.5z" fill="#1e5dff"/><path d="M79.7 2.1c0 .1.1.2.1.4l.3 1.5-13.4 4.6c-2.4.8-3.9 3.4-3.3 5.9l7.8 37.7-15 5.2c-.3.1-.6.2-.9.2h-.1c-1.3 0-2.4-.8-2.9-2.1 0-.1-.1-.2-.1-.4l-8.5-41c-.3-1.5.5-3 2-3.5L75.8.2c.3-.1.7-.2 1-.2h.1c1.2 0 2.4.8 2.8 2.1zm.8 3.9l1.7 8.1 6.1 29.4c.3 1.5-.5 3-2 3.5l-13.2 4.5L65.3 14c-.3-1.5.5-3 2-3.5L80.5 6z" fill="#3d73ff"/><path d="M101.3 2.1c0 .1.1.2.1.4l8.5 41c.3 1.5-.5 3-2 3.5l-30 10.4c-.3.1-.6.2-.9.2h-.1c-1.3 0-2.4-.8-2.9-2.1 0-.1-.1-.2-.1-.4l-8.5-41c-.3-1.5.5-3 2-3.5L97.5.2c.3-.1.6-.2.9-.2h.1c1.2 0 2.4.8 2.8 2.1z" fill="#6c95ff"/></g><path d="M142.5 32.8c1.4 0 2.7.3 3.8.9 2.1 1.1 3.2 2.7 3.4 5.3 0 .3-.2.5-.5.5h-4.5c-.3 0-.5-.2-.5-.4V39c-.3-1.2-.9-1.6-1.8-1.6-1 0-1.9.7-1.9 1.7 0 1.3 1.2 1.9 3.5 2.9 4.7 2 5.9 3.7 5.9 6.5 0 4.1-2.8 6.6-7.5 6.6s-7.7-2.4-7.7-7c0-.2.2-.4.5-.4h4.6c.2 0 .4.2.4.4v.1c.2 1.5 1 2.5 2.2 2.5 1.1 0 2.1-.9 2.1-2.1 0-1.3-1.4-2.1-3-2.7l-.1-.1c-.1 0-.2-.1-.4-.1l-.1-.1c-.2-.1-.5-.2-.7-.3-3.5-1.4-5.1-3.3-5.1-6.1-.1-3.8 3.5-6.4 7.4-6.4zm58.8 0c3 0 5.3.8 7.5 2.6 1.7 1.4 2.8 3.1 3.4 4.8v.4c0 .4-.3.7-.7.7h-4c-.4 0-.8-.2-1-.6 0-.1-.1-.1-.1-.2-1-1.8-2.8-2.9-4.8-2.9-3.4 0-5.7 2.9-5.7 6.3 0 3.5 2.4 6.4 5.8 6.4 2 0 3.6-1 4.8-2.9 0 0 0-.1.1-.1.2-.4.6-.6 1-.6h4.5c.3.1.5.4.4.8v.1c-1.6 4.6-5.8 7.5-10.5 7.5-3 0-5.8-1-8-3.2-2.3-2.3-3.3-5-3.3-8.2-.4-5.8 4.5-10.9 10.6-10.9zm-35.8.4c.6 0 1.2.5 1.2 1.2v2.5c0 .6-.5 1.2-1.2 1.2h-3v15.5c0 .6-.5 1.2-1.2 1.2h-3.2c-.6 0-1.2-.5-1.2-1.2V38H154c-.6 0-1.2-.5-1.2-1.2v-2.5c0-.6.5-1.2 1.2-1.2h11.5zm14.3 0c.5 0 .9.3 1.1.7l7.6 19.1c.1.1.1.3.1.4 0 .6-.5 1.2-1.2 1.2H184c-.5 0-.9-.3-1.1-.8l-.8-2.3h-7.4l-.9 2.3c-.2.5-.6.8-1.1.8h-3.4c-.1 0-.3 0-.4-.1-.6-.2-.9-.9-.6-1.5l7.7-19.1c.2-.4.6-.7 1.1-.7h2.7zm40.5 0c.6 0 1.2.5 1.2 1.2v8.5h.1l5.7-9.1c.2-.3.6-.5 1-.5h2.9c.2 0 .5.1.6.2.5.4.7 1.1.3 1.6l-5.9 8.9 6.3 8.9c.1.2.2.4.2.7 0 .6-.5 1.2-1.2 1.2H228c-.4 0-.8-.2-1-.5l-5.5-8.7v8.2c0 .6-.5 1.2-1.2 1.2h-3.2c-.6 0-1.2-.5-1.2-1.2V34.3c0-.6.5-1.2 1.2-1.2h3.2zm-41.9 6.6l-2.2 7.3h4.5l-2.3-7.3zM283.5 2.7c4.5 0 8.8 2.8 10.4 6.7V9.7c0 .3-.2.6-.5.6h-4.7c-.4 0-.7-.2-1-.5-.1-.1-.1-.1-.1-.2-1-1.3-2.5-2.1-4.3-2.1-3.4 0-5.8 2.8-5.8 6.2 0 3.6 2.3 6.4 5.9 6.4 2.5 0 4.4-1.2 5.1-3.4v-.1h-5.2c-.6 0-1.1-.5-1.2-1.1v-2.1c0-.6.5-1.1 1.1-1.2h10.4c.6 0 1.1.5 1.2 1.1v.1c0 5.8-4.2 11.4-11.4 11.4-6.3 0-11.4-5-11.4-11.2 0-6.4 5.2-10.9 11.5-10.9zm21.9 0c1.4 0 2.7.3 3.8.9 2.1 1.1 3.2 2.6 3.4 5.2v.1c0 .3-.2.5-.4.5h-4.5c-.2 0-.5-.2-.5-.4v-.1c-.3-1.2-.9-1.6-1.8-1.6-1 0-1.9.7-1.9 1.7 0 1.3 1.2 1.9 3.5 2.9 4.7 2 5.9 3.7 5.9 6.5 0 4.1-2.8 6.6-7.5 6.6-4.6 0-7.7-2.4-7.7-6.9V18c0-.2.2-.4.4-.4h4.6c.2 0 .4.1.4.3v.1c.2 1.5 1 2.5 2.2 2.5 1.1 0 2.1-.9 2.1-2.1 0-1.3-1.3-2-2.8-2.7l-.1-.1-.1-.1h-.1l-.1-.1s-.1 0-.1-.1l-.1-.1s-.1 0-.1-.1l-.1-.1c-.1-.1-.3-.1-.4-.2-3.5-1.4-5.1-3.3-5.1-6.1-.4-3.4 3.2-6 7.1-6zm-51.5.4c.4 0 .7.2 1 .5l8 13-.2-12.4c0-.6.5-1.1 1.1-1.2h2.9c.6 0 1.1.5 1.2 1.1v19.1c0 .6-.5 1.1-1.1 1.2h-2.9c-.4 0-.7-.2-1-.5L255 11.4l.1 11.9c0 .6-.5 1.1-1.1 1.2h-3c-.6 0-1.1-.5-1.2-1.1V4.2c0-.6.5-1.1 1.1-1.2h3zm-106.5 0c.6 0 1.1.5 1.2 1.1v2.5c0 .6-.5 1.1-1.1 1.2h-3v15.5c0 .6-.5 1.1-1.1 1.2h-3.2c-.6 0-1.1-.5-1.2-1.1V7.9h-3.1c-.6 0-1.1-.5-1.2-1.1V4.2c0-.6.5-1.1 1.1-1.2h11.6zm8.8 0c.6 0 1.1.5 1.2 1.1v6.9h7V4.2c0-.6.5-1.1 1.1-1.2h3.2c.6 0 1.1.5 1.2 1.1v19.1c0 .6-.5 1.1-1.1 1.2h-3.2c-.6 0-1.1-.5-1.2-1.1v-7.4h-7v7.4c0 .6-.5 1.1-1.1 1.2h-3.2c-.6 0-1.1-.5-1.2-1.1V4.2c0-.6.5-1.1 1.1-1.2h3.2zm29.5 0c.6 0 1.1.5 1.2 1.1v2.5c0 .6-.5 1.1-1.1 1.2h-5.5v3.3h5.3c.6 0 1.1.5 1.2 1.1v2.5c0 .6-.5 1.1-1.1 1.2h-5.3v3.7h5.5c.6 0 1.1.5 1.2 1.1v2.5c0 .6-.5 1.1-1.1 1.2h-9.6c-.6 0-1.1-.5-1.2-1.1V4.2c0-.6.5-1.1 1.1-1.2h9.4zm26.1 0c.6 0 1.1.5 1.2 1.1v2.5c0 .6-.5 1.1-1.1 1.2h-3v15.5c0 .6-.5 1.1-1.1 1.2h-3.2c-.6 0-1.1-.5-1.2-1.1V7.9h-3.1c-.6 0-1.1-.5-1.2-1.1V4.2c0-.6.5-1.1 1.1-1.2h11.6zm8.8 0c.6 0 1.1.5 1.2 1.1v6.9h7V4.2c0-.6.5-1.1 1.1-1.2h3.2c.6 0 1.1.5 1.2 1.1v19.1c0 .6-.5 1.1-1.1 1.2H230c-.6 0-1.1-.5-1.2-1.1v-7.4h-7v7.4c0 .6-.5 1.1-1.1 1.2h-3.2c-.6 0-1.1-.5-1.2-1.1V4.2c0-.6.5-1.1 1.1-1.2h3.2zm23 0c.6 0 1.1.5 1.2 1.1v19.1c0 .6-.5 1.1-1.1 1.2h-3.2c-.6 0-1.1-.5-1.2-1.1V4.2c0-.6.5-1.1 1.1-1.2h3.2z"/></svg>