<svg width="1535" height="281" xmlns="http://www.w3.org/2000/svg"><defs><linearGradient x1="0%" y1="37.275%" x2="100%" y2="62.725%" id="a"><stop stop-color="#57D0FF" offset="0%"/><stop stop-color="#2CB4FF" offset="100%"/></linearGradient></defs><g fill="none" fill-rule="evenodd"><path d="M1231.04 171.832c30.676 0 55.53 23.738 55.53 53.873 0 31.13-24.144 55.295-54.253 55.295-29.256 0-56.666-21.038-56.666-52.168 0-32.551 23.433-57 55.388-57zm-545.728 1.99a5.682 5.682 0 014.84 2.706l39.239 63.818-1.038-60.745v-.097a5.682 5.682 0 015.681-5.682h14.245a5.682 5.682 0 015.681 5.682v93.824a5.682 5.682 0 01-5.681 5.682H733.81a5.682 5.682 0 01-4.813-2.66l-38.663-61.59.646 58.505v.063a5.682 5.682 0 01-5.681 5.682h-14.28a5.682 5.682 0 01-5.681-5.682v-93.824a5.682 5.682 0 015.682-5.682zm168.191 0a5.682 5.682 0 015.682 5.682v12.232a5.682 5.682 0 01-5.682 5.682H826.52v16.347h25.989a5.682 5.682 0 015.682 5.682v12.232a5.682 5.682 0 01-5.682 5.682H826.52v18.053h26.983a5.682 5.682 0 015.682 5.682v12.232a5.682 5.682 0 01-5.682 5.682h-47.007a5.682 5.682 0 01-5.682-5.682v-93.824a5.682 5.682 0 015.682-5.682zm112.053 0a5.682 5.682 0 015.682 5.682v12.232a5.682 5.682 0 01-5.682 5.682h-14.91v75.91a5.682 5.682 0 01-5.683 5.682h-15.478a5.682 5.682 0 01-5.682-5.682v-75.91H908.75a5.682 5.682 0 01-5.682-5.682v-12.232a5.682 5.682 0 015.682-5.682zm67.55 0a5.682 5.682 0 015.565 4.537l13.127 63.835.07-.007a.356.356 0 00.277-.27l14.415-63.668a5.682 5.682 0 015.542-4.427h11.492a5.682 5.682 0 015.547 4.454l14.21 64.202.07-.006a.35.35 0 00.273-.272l13.342-63.858a5.682 5.682 0 015.561-4.52h15.128a5.682 5.682 0 015.493 7.135l-24.83 93.825a5.682 5.682 0 01-5.492 4.228h-14.685a5.682 5.682 0 01-5.536-4.4l-14.745-63.688-.07.007a.357.357 0 00-.278.27l-14.682 63.41a5.682 5.682 0 01-5.535 4.401h-15.367a5.682 5.682 0 01-5.502-4.263l-24.195-93.824a5.682 5.682 0 015.502-7.101zm332 0c10.935 0 19.315 1.421 24.853 3.838 11.362 5.117 19.315 17.484 19.315 32.41 0 16.63-9.941 30.276-26.132 33.12 11.175 14.021 19.556 24.538 25.143 31.55l.118.158a2.631 2.631 0 01-2.175 4.112h-22.293a5.682 5.682 0 01-4.623-2.378l-22.586-31.595h-.284v28.291a5.682 5.682 0 01-5.681 5.682h-14.343a5.682 5.682 0 01-5.681-5.682v-93.824a5.682 5.682 0 015.681-5.682zm109.052 0a5.682 5.682 0 015.682 5.682v41.653l.087-.008a.513.513 0 00.348-.233l27.861-44.43a5.682 5.682 0 014.814-2.664h14.39a5.682 5.682 0 014.734 8.823l-28.943 43.629 30.778 43.787a5.682 5.682 0 01-4.649 8.949h-17.314c-1.95 0-3.765-1-4.806-2.65l-27.016-42.837-.065.008a.284.284 0 00-.22.276v39.521a5.682 5.682 0 01-5.681 5.682h-15.478a5.682 5.682 0 01-5.682-5.682v-93.824a5.682 5.682 0 015.682-5.682zm-243.119 21.606c-16.758 0-28.546 14.073-28.546 30.704 0 17.341 11.788 31.272 28.972 31.272 16.617 0 28.262-14.073 28.262-30.846 0-16.489-11.787-31.13-28.688-31.13zm135.629 1.99h-10.226V226.7h9.942c10.651 0 17.184-4.975 17.184-15.067 0-9.098-6.817-14.215-16.9-14.215zM1387.132 24c22.03 0 43.326 13.859 51.025 32.804l.229.576.069.2a2.834 2.834 0 01-2.537 3.657l-.172.005h-23.075a5.682 5.682 0 01-4.693-2.478c-.253-.371-.477-.685-.675-.943-5.008-6.545-12.209-10.225-20.88-10.225-16.901 0-28.69 13.646-28.69 30.562 0 17.484 11.079 31.556 28.831 31.556 12.35 0 21.648-5.968 25.019-16.531l.119-.384h-25.705a5.682 5.682 0 01-5.678-5.464l-.004-.218v-10.1a5.682 5.682 0 015.464-5.678l.218-.004h51.126a5.682 5.682 0 015.678 5.464l.004.217v.289c0 28.287-20.735 56.005-56.099 56.005-31.102 0-55.814-24.307-55.814-55.152 0-31.841 25.706-54.158 56.24-54.158zm107.653 0c6.959 0 13.065 1.564 18.604 4.407 10.402 5.402 15.799 13.004 16.644 25.297l.033.522.003.067v.067c0 1.235-.959 2.246-2.173 2.328l-.16.006h-21.861a2.762 2.762 0 01-2.645-1.966l-.044-.168-.082-.337c-1.418-5.663-4.395-7.764-9.03-7.764-4.97 0-9.231 3.554-9.231 8.245 0 6.254 5.68 9.097 17.185 14.072 23.15 9.95 28.972 18.337 28.972 32.125 0 20.327-13.918 32.267-36.642 32.267-22.636 0-37.617-11.703-37.915-33.867l-.004-.674.005-.156a2.275 2.275 0 012.113-2.113l.156-.006h22.572c.96 0 1.768.696 1.924 1.627l.02.157.034.362c.76 7.451 4.846 12.211 10.953 12.211 5.54 0 10.084-4.406 10.084-10.092 0-6.309-6.59-9.963-13.905-13.02l-.71-.294-.692-.282-.346-.14-.695-.278c-.231-.093-.463-.184-.695-.276l-.694-.274-.692-.273-.69-.271a277.99 277.99 0 01-2.042-.813c-17.185-6.965-24.996-16.062-24.996-29.708 0-17.91 17.327-30.988 36.642-30.988zm-252.85 1.99c1.891 0 3.653.94 4.706 2.5l.134.206 39.238 63.818-1.037-60.745-.001-.097a5.682 5.682 0 015.464-5.678l.218-.004h14.244a5.682 5.682 0 015.678 5.464l.004.218v93.824a5.682 5.682 0 01-5.464 5.678l-.218.004h-14.468c-1.87 0-3.614-.92-4.672-2.449l-.14-.212-38.664-61.589.647 58.505v.063a5.682 5.682 0 01-5.464 5.678l-.218.004h-14.279a5.682 5.682 0 01-5.678-5.464l-.004-.218V31.672a5.682 5.682 0 015.464-5.678l.218-.004h14.291zm-522.447 0a5.682 5.682 0 015.678 5.464l.004.218v12.232a5.682 5.682 0 01-5.464 5.678l-.218.004h-14.91v75.91a5.682 5.682 0 01-5.465 5.678l-.218.004h-15.478a5.682 5.682 0 01-5.678-5.464l-.004-.218v-75.91h-15.053a5.682 5.682 0 01-5.678-5.464l-.004-.218V31.672a5.682 5.682 0 015.464-5.678l.218-.004h56.806zm43.317 0a5.682 5.682 0 015.678 5.464l.004.218v33.835h34.369V31.672a5.682 5.682 0 015.464-5.678l.218-.004h15.478a5.682 5.682 0 015.678 5.464l.004.218v93.824a5.682 5.682 0 01-5.464 5.678l-.218.004h-15.478a5.682 5.682 0 01-5.678-5.464l-.004-.218V89.103h-34.37v36.393a5.682 5.682 0 01-5.463 5.678l-.218.004h-15.478a5.682 5.682 0 01-5.678-5.464l-.004-.218V31.672a5.682 5.682 0 015.464-5.678l.218-.004h15.478zm144.294 0a5.682 5.682 0 015.678 5.464l.004.218v12.232a5.682 5.682 0 01-5.464 5.678l-.218.004h-26.983v16.347h25.989a5.682 5.682 0 015.677 5.464l.004.218v12.232a5.682 5.682 0 01-5.463 5.678l-.218.004h-25.99v18.053H907.1a5.682 5.682 0 015.678 5.464l.004.218v12.232a5.682 5.682 0 01-5.464 5.678l-.218.004h-47.007a5.682 5.682 0 01-5.678-5.464l-.004-.218V31.672a5.682 5.682 0 015.464-5.678l.218-.004h47.007zm128.387 0a5.682 5.682 0 015.678 5.464l.004.218v12.232a5.682 5.682 0 01-5.464 5.678l-.218.004h-14.911v75.91a5.682 5.682 0 01-5.464 5.678l-.218.004h-15.478a5.682 5.682 0 01-5.678-5.464l-.004-.218v-75.91H978.68a5.682 5.682 0 01-5.678-5.464l-.004-.218V31.672a5.682 5.682 0 015.464-5.678l.218-.004h56.806zm43.317 0a5.682 5.682 0 015.677 5.464l.005.218v33.835h34.369V31.672a5.682 5.682 0 015.464-5.678l.218-.004h15.478a5.682 5.682 0 015.678 5.464l.004.218v93.824a5.682 5.682 0 01-5.464 5.678l-.218.004h-15.478a5.682 5.682 0 01-5.678-5.464l-.004-.218V89.103h-34.37v36.393a5.682 5.682 0 01-5.463 5.678l-.218.004h-15.479a5.682 5.682 0 01-5.677-5.464l-.004-.218V31.672a5.682 5.682 0 015.463-5.678l.218-.004h15.479zm112.765 0a5.682 5.682 0 015.677 5.464l.005.218v93.824a5.682 5.682 0 01-5.464 5.678l-.218.004h-15.479a5.682 5.682 0 01-5.677-5.464l-.004-.218V31.672a5.682 5.682 0 015.463-5.678l.218-.004h15.479z" fill="#000" fill-rule="nonzero"/><path d="M292.938 0c51.88 0 94.6 39.215 100.134 89.62 9.21-4.897 19.723-7.671 30.884-7.671 21.18 0 40.028 9.99 52.088 25.516l.167.001.002.217c8.565 11.123 13.659 25.058 13.659 40.182 0 5.025-.563 9.919-1.628 14.622 27.294 5.568 47.83 29.71 47.83 58.65 0 32.731-26.268 59.326-58.873 59.855l-.99.008-401.061-.642a66.49 66.49 0 01-9.234.642C29.512 281 0 251.488 0 215.084c0-36.404 29.512-65.916 65.916-65.916h.22l-.003-.2c0-49.386 40.02-89.422 89.385-89.422 14.994 0 29.126 3.693 41.536 10.22C210.116 29.284 248.108 0 292.938 0zm134.166 43.23a110.133 110.133 0 0121.44 3.727 111.072 111.072 0 0138.642 19.516 111.125 111.125 0 0128.277 32.79 110.247 110.247 0 018.802 19.91c1.757 5.35-1.153 11.11-6.5 12.868-5.346 1.757-11.105-1.155-12.862-6.504a89.851 89.851 0 00-7.174-16.228 90.736 90.736 0 00-23.09-26.77 90.693 90.693 0 00-31.548-15.937 89.753 89.753 0 00-16.702-2.977l-.774-.06c-5.613-.412-9.83-5.298-9.419-10.913.411-5.615 5.295-9.834 10.908-9.422zm5.199-35.458c9.3.682 18.47 2.282 27.401 4.764 17.947 4.987 34.732 13.486 49.395 24.947a142.046 142.046 0 0136.145 41.912 140.898 140.898 0 0111.249 25.447c1.757 5.349-1.153 11.11-6.5 12.867-5.287 1.738-10.976-1.09-12.802-6.324l-.06-.18a120.502 120.502 0 00-9.622-21.764 121.656 121.656 0 00-30.957-35.892 121.6 121.6 0 00-42.3-21.368 120.377 120.377 0 00-23.437-4.074c-5.613-.411-9.83-5.297-9.42-10.913.412-5.615 5.295-9.833 10.908-9.422z" fill="url(#a)"/></g></svg>